<svg width="97" height="18" viewBox="0 0 97 18" fill="none" xmlns="http://www.w3.org/2000/svg">
<path d="M11.904 17.336C11.904 17.4 11.832 17.44 11.688 17.456C11.272 17.408 10.992 17.288 10.848 17.096C10.336 15.88 9.968 14.816 9.744 13.904C9.248 15.136 8.608 16.088 7.824 16.76C7.04 17.432 6.176 17.768 5.232 17.768C3.824 17.768 2.72 17.144 1.92 15.896C1.12 14.648 0.72 13 0.72 10.952C0.72 9.192 1.176 7.544 2.088 6.008C2.584 5.16 3.2 4.392 3.936 3.704C4.672 3.016 5.624 2.408 6.792 1.88C7.96 1.352 9.264 0.975999 10.704 0.751999L11.112 1.376L10.32 3.44C9.872 3.376 9.4 3.344 8.904 3.344C7.784 3.344 6.808 3.544 5.976 3.944C5.144 4.328 4.512 4.84 4.08 5.48C3.264 6.744 2.856 8.128 2.856 9.632C2.856 11.6 3.144 13.104 3.72 14.144C4.312 15.168 5.016 15.68 5.832 15.68C7.48 15.68 8.664 14.424 9.384 11.912C9.32 11.4 9.288 10.808 9.288 10.136C9.288 9.448 9.368 8.648 9.528 7.736L10.104 7.352L12.072 8.24C11.56 9.216 11.304 10.568 11.304 12.296C11.304 14.024 11.504 15.704 11.904 17.336ZM22.0581 1.208C21.9781 2.056 21.9381 2.952 21.9381 3.896C21.9381 7.784 22.6581 12.4 24.0981 17.744C24.0501 17.776 23.9861 17.8 23.9061 17.816C23.4901 17.816 23.1781 17.696 22.9701 17.456C22.4261 16.304 21.8341 14.608 21.1941 12.368C20.1061 12.544 19.0901 12.632 18.1461 12.632C17.2181 12.632 16.5701 12.616 16.2021 12.584C15.4501 14.152 14.6101 15.776 13.6821 17.456C13.3941 17.696 13.0981 17.816 12.7941 17.816C12.4901 17.816 12.3381 17.792 12.3381 17.744C12.9461 16.544 13.7461 14.76 14.7381 12.392C14.5461 12.36 14.2421 12.296 13.8261 12.2C13.5861 11.944 13.4661 11.592 13.4661 11.144C13.4661 11.032 13.4901 10.976 13.5381 10.976C13.5861 10.976 13.6821 11 13.8261 11.048C14.1621 11.144 14.6101 11.224 15.1701 11.288C16.7061 7.528 17.7701 4.48 18.3621 2.144L21.0021 0.751999C21.4501 0.751999 21.8021 0.903999 22.0581 1.208ZM16.7781 11.36C18.2821 11.328 19.6181 11.144 20.7861 10.808C20.1301 8.328 19.7141 6.216 19.5381 4.472C18.6261 6.984 17.7061 9.28 16.7781 11.36ZM38.3529 1.736C37.8409 3.016 37.4569 4.64 37.2009 6.608C36.9449 8.56 36.8169 10.424 36.8169 12.2C36.8169 13.976 36.8969 15.776 37.0569 17.6C37.0569 17.648 36.9849 17.672 36.8409 17.672C36.3769 17.672 36.0729 17.56 35.9289 17.336C33.2409 13.384 31.0489 9.528 29.3529 5.768C29.3529 9.864 28.8969 13.68 27.9849 17.216C27.8569 17.344 27.6649 17.448 27.4089 17.528C27.1529 17.624 26.9449 17.672 26.7849 17.672C26.6249 17.672 26.5449 17.64 26.5449 17.576L26.6409 17.288C27.2169 15.192 27.5049 12.72 27.5049 9.872C27.5049 8.576 27.4249 7.256 27.2649 5.912C27.1209 4.552 26.9769 3.512 26.8329 2.792L26.5929 1.736L29.1849 0.751999L29.8089 1.136C30.4969 3.52 31.3449 5.832 32.3529 8.072C33.3609 10.312 34.3849 12.256 35.4249 13.904C35.2169 12.368 35.1129 10.552 35.1129 8.456C35.1129 6.36 35.3849 3.92 35.9289 1.136L36.5289 0.751999L38.3529 1.736ZM43.4623 9.32C43.4303 10.632 43.3343 11.864 43.1743 13.016C43.0303 14.168 42.8703 14.92 42.6943 15.272C42.5023 15.512 42.2943 15.632 42.0703 15.632C41.8623 15.632 41.7583 15.608 41.7583 15.56C41.9823 14.072 42.0943 12.672 42.0943 11.36C42.0943 6.688 41.3903 3.648 39.9823 2.24L40.9663 0.631999C41.9263 1.448 43.3343 2.024 45.1903 2.36C45.8943 2.488 46.5743 2.632 47.2303 2.792C48.6383 3.112 49.3423 3.744 49.3423 4.688C49.3423 5.104 49.1263 5.536 48.6943 5.984C48.2783 6.432 47.7903 6.824 47.2303 7.16C46.2223 7.768 45.4783 8.16 44.9983 8.336C46.9823 8.48 48.4863 8.992 49.5103 9.872C50.5343 10.752 51.0463 11.808 51.0463 13.04C51.0463 14.272 50.4543 15.352 49.2703 16.28C48.1023 17.208 46.4143 17.672 44.2063 17.672C42.7503 17.672 41.3983 17.536 40.1503 17.264C39.9103 17.024 39.7903 16.792 39.7903 16.568C39.7903 16.344 39.8143 16.232 39.8623 16.232C39.9103 16.232 40.0543 16.264 40.2943 16.328C41.0783 16.504 41.8863 16.592 42.7183 16.592C44.3823 16.592 45.7343 16.248 46.7743 15.56C47.8303 14.856 48.3583 13.912 48.3583 12.728C48.3583 12.04 48.0783 11.432 47.5183 10.904C46.5103 9.96 45.1583 9.432 43.4623 9.32ZM43.1023 3.416C43.3583 4.072 43.4863 5.456 43.4863 7.568C44.3663 7.216 45.1103 6.784 45.7183 6.272C46.3263 5.744 46.6303 5.336 46.6303 5.048C46.6303 4.76 46.4143 4.528 45.9823 4.352C45.5663 4.16 45.0383 3.992 44.3983 3.848C43.7583 3.688 43.3263 3.544 43.1023 3.416ZM60.4253 1.208C60.3453 2.056 60.3053 2.952 60.3053 3.896C60.3053 7.784 61.0253 12.4 62.4653 17.744C62.4173 17.776 62.3533 17.8 62.2733 17.816C61.8573 17.816 61.5453 17.696 61.3373 17.456C60.7933 16.304 60.2013 14.608 59.5613 12.368C58.4733 12.544 57.4573 12.632 56.5133 12.632C55.5853 12.632 54.9373 12.616 54.5693 12.584C53.8173 14.152 52.9773 15.776 52.0493 17.456C51.7613 17.696 51.4653 17.816 51.1612 17.816C50.8572 17.816 50.7052 17.792 50.7052 17.744C51.3133 16.544 52.1133 14.76 53.1053 12.392C52.9133 12.36 52.6093 12.296 52.1933 12.2C51.9533 11.944 51.8333 11.592 51.8333 11.144C51.8333 11.032 51.8573 10.976 51.9053 10.976C51.9533 10.976 52.0493 11 52.1933 11.048C52.5293 11.144 52.9773 11.224 53.5373 11.288C55.0733 7.528 56.1373 4.48 56.7293 2.144L59.3693 0.751999C59.8173 0.751999 60.1693 0.903999 60.4253 1.208ZM55.1453 11.36C56.6493 11.328 57.9853 11.144 59.1533 10.808C58.4973 8.328 58.0813 6.216 57.9053 4.472C56.9933 6.984 56.0733 9.28 55.1453 11.36ZM67.7488 17.456C67.5248 17.68 67.1808 17.792 66.7168 17.792C66.6048 17.792 66.5488 17.768 66.5488 17.72C66.9008 15.592 67.0768 13.32 67.0768 10.904C67.0768 8.472 66.9808 6.176 66.7888 4.016C66.5168 4.032 66.0288 4.04 65.3248 4.04C64.6368 4.04 63.8608 3.968 62.9968 3.824L62.6128 3.2L63.5248 1.136C64.5328 1.68 65.9488 1.952 67.7728 1.952C69.6128 1.952 71.3968 1.736 73.1248 1.304C73.1888 1.304 73.2208 1.44 73.2208 1.712C73.2208 1.984 73.1008 2.224 72.8608 2.432C71.5808 2.976 70.3568 3.384 69.1888 3.656C68.9008 10.248 68.4208 14.848 67.7488 17.456ZM78.7176 17.456C78.4936 17.68 78.1496 17.792 77.6856 17.792C77.5736 17.792 77.5176 17.768 77.5176 17.72C77.8696 15.592 78.0456 13.32 78.0456 10.904C78.0456 8.472 77.9496 6.176 77.7576 4.016C77.4856 4.032 76.9976 4.04 76.2936 4.04C75.6056 4.04 74.8296 3.968 73.9656 3.824L73.5816 3.2L74.4936 1.136C75.5016 1.68 76.9176 1.952 78.7416 1.952C80.5816 1.952 82.3656 1.736 84.0936 1.304C84.1576 1.304 84.1896 1.44 84.1896 1.712C84.1896 1.984 84.0696 2.224 83.8296 2.432C82.5496 2.976 81.3256 3.384 80.1576 3.656C79.8696 10.248 79.3896 14.848 78.7176 17.456ZM94.1743 8.192L93.4543 9.848C92.5263 10.024 91.6383 10.112 90.7903 10.112C89.9423 10.112 89.2063 10.088 88.5823 10.04C88.5663 10.264 88.5583 10.584 88.5583 11C88.5583 12.568 88.7823 13.864 89.2303 14.888C89.6943 15.896 90.3823 16.4 91.2943 16.4C92.2223 16.4 92.9663 16.064 93.5263 15.392C94.0863 14.704 94.5823 13.6 95.0143 12.08C95.0463 11.952 95.1023 11.888 95.1823 11.888C95.4063 11.888 95.6543 12 95.9263 12.224C95.1903 15.936 93.5183 17.792 90.9103 17.792C88.1423 17.792 86.7103 15.136 86.6143 9.824L86.1343 9.728C85.9903 9.68 85.8463 9.52 85.7023 9.248C85.5743 8.96 85.5023 8.736 85.4863 8.576L85.6063 8.432C86.0383 8.496 86.3823 8.536 86.6383 8.552C86.7183 6.088 86.8623 4.248 87.0703 3.032L86.4943 2.888C86.3503 2.792 86.2303 2.64 86.1343 2.432C86.0543 2.208 86.0143 2.048 86.0143 1.952C86.0143 1.856 86.0303 1.808 86.0623 1.808L87.7663 1.952L89.5183 0.751999L90.1423 1.136L89.8543 1.976C92.2863 1.944 94.2783 1.536 95.8303 0.751999L96.2383 1.376L95.4463 3.44C94.3263 3.584 93.2623 3.656 92.2543 3.656C91.2463 3.656 90.3263 3.6 89.4943 3.488C89.1103 5.12 88.8383 6.832 88.6783 8.624H89.2303C90.9583 8.624 92.5343 8.344 93.9583 7.784L94.1743 8.192Z" fill="#0B167D"/>
</svg>
